<?xml version="1.0" encoding="UTF-8" standalone="no"?>
<svg width="21px" height="20px" viewBox="0 0 21 20" version="1.1" xmlns="http://www.w3.org/2000/svg" xmlns:xlink="http://www.w3.org/1999/xlink" xmlns:sketch="http://www.bohemiancoding.com/sketch/ns">
    <!-- Generator: Sketch 3.3.2 (12043) - http://www.bohemiancoding.com/sketch -->
    <title>social-github</title>
    <desc>Created with Sketch.</desc>
    <defs>
        <linearGradient x1="50%" y1="0%" x2="50%" y2="99.5376276%" id="linearGradient-1">
            <stop stop-color="#546FB4" offset="0%"></stop>
            <stop stop-color="#475D97" offset="100%"></stop>
        </linearGradient>
    </defs>
    <g id="final" stroke="none" stroke-width="1" fill="none" fill-rule="evenodd" sketch:type="MSPage">
        <g id="blog_main-copy-6" sketch:type="MSArtboardGroup" transform="translate(-1060.000000, -486.000000)" fill="url(#linearGradient-1)">
            <g id="social-github" sketch:type="MSLayerGroup" transform="translate(1060.000000, 485.475000)">
                <path d="M10.3799815,0.555555556 C4.64782206,0.555555556 0,4.99280409 0,10.4606672 C0,14.837545 2.97497683,18.5460326 7.09916589,19.8569398 C7.16404078,19.8698764 7.21964782,19.8741886 7.27525487,19.8741886 C7.65987025,19.8741886 7.8081557,19.6111447 7.8081557,19.3825984 C7.8081557,19.1454277 7.79888786,18.5244716 7.79425394,17.6965302 C7.40500463,17.7784619 7.05746061,17.8129595 6.74698795,17.8129595 C4.7497683,17.8129595 4.29564411,16.3683742 4.29564411,16.3683742 C3.82298424,15.2256425 3.14179796,14.9194767 3.14179796,14.9194767 C2.2381835,14.328706 3.13716404,14.3114572 3.20667285,14.3114572 L3.21130677,14.3114572 C4.25393883,14.3977011 4.80074143,15.3377596 4.80074143,15.3377596 C5.3197405,16.1829498 6.01482854,16.4201205 6.63577386,16.4201205 C7.1223355,16.4201205 7.56255792,16.2735059 7.82205746,16.1613888 C7.91473587,15.523184 8.18350324,15.0876523 8.48007414,14.837545 C6.17701576,14.5874377 3.75347544,13.7379353 3.75347544,9.94320381 C3.75347544,8.8608429 4.15662651,7.97684294 4.81927711,7.28689176 C4.71269694,7.03678446 4.35588508,6.02773086 4.92122335,4.66507728 C4.92122335,4.66507728 4.99536608,4.6435163 5.15291937,4.6435163 C5.52826691,4.6435163 6.37627433,4.77719434 7.77571826,5.68275527 C8.60518999,5.46283333 9.49026877,5.35502846 10.3753475,5.35071626 C11.2557924,5.35502846 12.1455051,5.46283333 12.9749768,5.68275527 C14.3744208,4.77719434 15.2224282,4.6435163 15.5977757,4.6435163 C15.755329,4.6435163 15.8294717,4.66507728 15.8294717,4.66507728 C16.39481,6.02773086 16.0379981,7.03678446 15.931418,7.28689176 C16.5940686,7.98115514 16.9972196,8.86515509 16.9972196,9.94320381 C16.9972196,13.7465597 14.5690454,14.5831255 12.2567192,14.8289206 C12.6274328,15.1350864 12.9610751,15.7387937 12.9610751,16.6616034 C12.9610751,17.9854473 12.9471733,19.0548716 12.9471733,19.3782862 C12.9471733,19.6111447 13.0908248,19.8741886 13.4754402,19.8741886 C13.5310473,19.8741886 13.5959222,19.8698764 13.660797,19.8569398 C17.78962,18.5460326 20.7599629,14.8332328 20.7599629,10.4606672 C20.7599629,4.99280409 16.1121409,0.555555556 10.3799815,0.555555556 L10.3799815,0.555555556 Z" id="Shape" sketch:type="MSShapeGroup"></path>
            </g>
        </g>
    </g>
</svg>