<?xml version="1.0" encoding="UTF-8" standalone="no"?>
<svg width="27px" height="21px" viewBox="0 0 27 21" version="1.1" xmlns="http://www.w3.org/2000/svg" xmlns:xlink="http://www.w3.org/1999/xlink" xmlns:sketch="http://www.bohemiancoding.com/sketch/ns">
    <!-- Generator: Sketch 3.3.2 (12043) - http://www.bohemiancoding.com/sketch -->
    <title>social-twitter</title>
    <desc>Created with Sketch.</desc>
    <defs>
        <linearGradient x1="50%" y1="0%" x2="50%" y2="99.5376276%" id="linearGradient-1">
            <stop stop-color="#546FB4" offset="0%"></stop>
            <stop stop-color="#475D97" offset="100%"></stop>
        </linearGradient>
    </defs>
    <g id="final" stroke="none" stroke-width="1" fill="none" fill-rule="evenodd" sketch:type="MSPage">
        <g id="blog_main-copy-6" sketch:type="MSArtboardGroup" transform="translate(-1109.000000, -485.000000)" fill="url(#linearGradient-1)">
            <g id="social-twitter" sketch:type="MSLayerGroup" transform="translate(1109.000000, 485.475000)">
                <path d="M26.6762867,2.3544584 C25.6928812,2.75290521 24.6416546,3.02198617 23.5339105,3.14617738 C24.6642617,2.52522132 25.534632,1.54204089 25.9415584,0.372573638 C24.8846801,0.946957996 23.7147667,1.36610334 22.4657287,1.58861259 C21.465368,0.610606795 20.0411255,1.13686838e-13 18.4699375,1.13686838e-13 C15.4462482,1.13686838e-13 12.999038,2.24579109 12.999038,5.01422021 C12.999038,5.40749238 13.044252,5.79041529 13.1403319,6.15781429 C8.59066859,5.95082894 4.55531506,3.95342027 1.85942761,0.915910193 C1.39033189,1.65588283 1.11904762,2.52004669 1.11904762,3.43595688 C1.11904762,5.17463386 2.09114959,6.71150011 3.56060606,7.6118864 C2.65632516,7.59118787 1.80856181,7.36350398 1.07383357,6.98575571 L1.07383357,7.04785131 C1.07383357,9.47992923 2.96151996,11.5032111 5.46524772,11.9637535 C5.00745551,12.0775954 4.52140452,12.139691 4.02405002,12.139691 C3.67364117,12.139691 3.32888408,12.1086432 2.9954305,12.0465476 C3.69059644,14.0387817 5.71392496,15.4876791 8.11026936,15.5290762 C6.23953824,16.874481 3.87710438,17.6765493 1.31120731,17.6765493 C0.87037037,17.6765493 0.435185185,17.6506761 0.00565175565,17.6041044 C2.41895142,19.0426526 5.29569505,19.870594 8.38155363,19.870594 C18.458634,19.870594 23.963444,12.2276598 23.963444,5.59895383 C23.963444,5.38161921 23.9577922,5.16428459 23.9464887,4.9521246 C25.0146705,4.24319976 25.9415584,3.36351201 26.6762867,2.3544584 L26.6762867,2.3544584 Z" id="Shape" sketch:type="MSShapeGroup"></path>
            </g>
        </g>
    </g>
</svg>