<?xml version="1.0" encoding="UTF-8" standalone="no"?>
<svg width="20px" height="21px" viewBox="0 0 20 21" version="1.1" xmlns="http://www.w3.org/2000/svg" xmlns:xlink="http://www.w3.org/1999/xlink" xmlns:sketch="http://www.bohemiancoding.com/sketch/ns">
    <!-- Generator: Sketch 3.3.2 (12043) - http://www.bohemiancoding.com/sketch -->
    <title>social-linkedin</title>
    <desc>Created with Sketch.</desc>
    <defs></defs>
    <g id="Page-1" stroke="none" stroke-width="1" fill="none" fill-rule="evenodd" sketch:type="MSPage">
        <g id="blog_main-copy-5" sketch:type="MSArtboardGroup" transform="translate(-1166.000000, -875.000000)" fill="#546FB4">
            <g id="social-linkedin" sketch:type="MSLayerGroup" transform="translate(1166.000000, 875.343398)">
                <path d="M18.3958333,0 L1.70833333,0 C0.796875,0 0,0.65625 0,1.55729167 L0,18.28125 C0,19.1875 0.796875,19.9947917 1.70833333,19.9947917 L18.390625,19.9947917 C19.3072917,19.9947917 19.9947917,19.1822917 19.9947917,18.28125 L19.9947917,1.55729167 C20,0.65625 19.3072917,0 18.3958333,0 L18.3958333,0 Z M6.19791667,16.6666667 L3.33333333,16.6666667 L3.33333333,7.76041667 L6.19791667,7.76041667 L6.19791667,16.6666667 L6.19791667,16.6666667 Z M4.86458333,6.40625 L4.84375,6.40625 C3.92708333,6.40625 3.33333333,5.72395833 3.33333333,4.86979167 C3.33333333,4 3.94270833,3.33333333 4.88020833,3.33333333 C5.81770833,3.33333333 6.390625,3.99479167 6.41145833,4.86979167 C6.41145833,5.72395833 5.81770833,6.40625 4.86458333,6.40625 L4.86458333,6.40625 Z M16.6666667,16.6666667 L13.8020833,16.6666667 L13.8020833,11.796875 C13.8020833,10.6302083 13.3854167,9.83333333 12.3489583,9.83333333 C11.5572917,9.83333333 11.0885417,10.3697917 10.8802083,10.890625 C10.8020833,11.078125 10.78125,11.3333333 10.78125,11.59375 L10.78125,16.6666667 L7.91666667,16.6666667 L7.91666667,7.76041667 L10.78125,7.76041667 L10.78125,9 C11.1979167,8.40625 11.8489583,7.55208333 13.3645833,7.55208333 C15.2447917,7.55208333 16.6666667,8.79166667 16.6666667,11.4635417 L16.6666667,16.6666667 L16.6666667,16.6666667 Z" id="Shape" sketch:type="MSShapeGroup"></path>
            </g>
        </g>
    </g>
</svg>