<?xml version="1.0" encoding="UTF-8" standalone="no"?>
<svg width="26px" height="25px" viewBox="0 0 26 25" version="1.1" xmlns="http://www.w3.org/2000/svg" xmlns:xlink="http://www.w3.org/1999/xlink" xmlns:sketch="http://www.bohemiancoding.com/sketch/ns">
    <!-- Generator: Sketch 3.3.2 (12043) - http://www.bohemiancoding.com/sketch -->
    <title>Oval 1</title>
    <desc>Created with Sketch.</desc>
    <defs></defs>
    <g id="final" stroke="none" stroke-width="1" fill="none" fill-rule="evenodd" sketch:type="MSPage">
        <g id="blog_article-copy-4" sketch:type="MSArtboardGroup" transform="translate(-1126.000000, -879.000000)" fill="#CCCCCC">
            <path d="M1138.52945,904 C1145.43301,904 1151.02945,898.403559 1151.02945,891.5 C1151.02945,884.596441 1145.43301,879 1138.52945,879 C1131.62589,879 1126.02945,884.596441 1126.02945,891.5 C1126.02945,898.403559 1131.62589,904 1138.52945,904 Z M1147.42625,886.902293 C1146.77805,887.163984 1146.08516,887.340711 1145.355,887.422278 C1146.10006,887.014446 1146.67375,886.368713 1146.94197,885.600631 C1146.24534,885.977875 1145.47421,886.253161 1144.65093,886.399301 C1143.99156,885.756966 1143.05279,885.355932 1142.01717,885.355932 C1140.02415,885.355932 1138.41111,886.830922 1138.41111,888.64917 C1138.41111,888.907463 1138.44092,889.158959 1138.50425,889.400259 C1135.50541,889.264316 1132.84557,887.952458 1131.06862,885.957483 C1130.75942,886.443482 1130.58061,887.011048 1130.58061,887.612599 C1130.58061,888.754526 1131.22136,889.763909 1132.18993,890.355264 C1131.59388,890.34167 1131.03509,890.192132 1130.55081,889.944034 L1130.55081,889.984818 C1130.55081,891.582157 1131.79505,892.911007 1133.44534,893.213482 C1133.14359,893.288251 1132.82322,893.329034 1132.4954,893.329034 C1132.26443,893.329034 1132.03719,893.308643 1131.8174,893.26786 C1132.27561,894.576318 1133.60925,895.527925 1135.18876,895.555114 C1133.9557,896.438748 1132.39854,896.96553 1130.70727,896.96553 C1130.4167,896.96553 1130.12986,896.948537 1129.84674,896.91795 C1131.43742,897.862759 1133.33358,898.406534 1135.36757,898.406534 C1142.00972,898.406534 1145.63812,893.38681 1145.63812,889.033211 C1145.63812,888.89047 1145.6344,888.747729 1145.62695,888.608387 C1146.33102,888.14278 1146.94197,887.565018 1147.42625,886.902293 Z" id="Oval-1" sketch:type="MSShapeGroup"></path>
        </g>
    </g>
</svg>