<?xml version="1.0" encoding="UTF-8" standalone="no"?>
<svg width="26px" height="25px" viewBox="0 0 26 25" version="1.1" xmlns="http://www.w3.org/2000/svg" xmlns:xlink="http://www.w3.org/1999/xlink" xmlns:sketch="http://www.bohemiancoding.com/sketch/ns">
    <!-- Generator: Sketch 3.3.2 (12043) - http://www.bohemiancoding.com/sketch -->
    <title>Shape</title>
    <desc>Created with Sketch.</desc>
    <defs></defs>
    <g id="final" stroke="none" stroke-width="1" fill="none" fill-rule="evenodd" sketch:type="MSPage">
        <g id="blog_article-copy-4" sketch:type="MSArtboardGroup" transform="translate(-1088.000000, -879.000000)" fill="#CCCCCC">
            <path d="M1100.52945,879 C1093.62655,879 1088.02945,884.742188 1088.02945,891.81808 C1088.02945,897.482143 1091.61204,902.28125 1096.57856,903.977679 C1096.65668,903.99442 1096.72365,904 1096.79061,904 C1097.25378,904 1097.43235,903.659598 1097.43235,903.363839 C1097.43235,903.05692 1097.42119,902.253348 1097.41561,901.18192 C1096.94686,901.287946 1096.52833,901.332589 1096.15445,901.332589 C1093.74932,901.332589 1093.20244,899.46317 1093.20244,899.46317 C1092.63325,897.984375 1091.81293,897.58817 1091.81293,897.58817 C1090.72476,896.823661 1091.80735,896.801339 1091.89106,896.801339 L1091.89664,896.801339 C1093.15222,896.912946 1093.8107,898.129464 1093.8107,898.129464 C1094.4357,899.223214 1095.27275,899.530134 1096.02052,899.530134 C1096.60646,899.530134 1097.13659,899.340402 1097.44909,899.195312 C1097.5607,898.36942 1097.88436,897.805804 1098.2415,897.482143 C1095.46807,897.158482 1092.54954,896.059152 1092.54954,891.148438 C1092.54954,889.747768 1093.03503,888.603795 1093.83302,887.710938 C1093.70467,887.387277 1093.27499,886.081473 1093.95579,884.31808 C1093.95579,884.31808 1094.04508,884.290179 1094.23481,884.290179 C1094.68682,884.290179 1095.70802,884.46317 1097.39329,885.635045 C1098.39217,885.350446 1099.45802,885.210938 1100.52387,885.205357 C1101.58414,885.210938 1102.65557,885.350446 1103.65445,885.635045 C1105.33972,884.46317 1106.36092,884.290179 1106.81293,884.290179 C1107.00267,884.290179 1107.09195,884.31808 1107.09195,884.31808 C1107.77275,886.081473 1107.34307,887.387277 1107.21472,887.710938 C1108.01271,888.609375 1108.4982,889.753348 1108.4982,891.148438 C1108.4982,896.070312 1105.57409,897.152902 1102.7895,897.470982 C1103.23592,897.867188 1103.63771,898.648438 1103.63771,899.842634 C1103.63771,901.555804 1103.62097,902.939732 1103.62097,903.358259 C1103.62097,903.659598 1103.79396,904 1104.25713,904 C1104.32409,904 1104.40222,903.99442 1104.48034,903.977679 C1109.45244,902.28125 1113.02945,897.476562 1113.02945,891.81808 C1113.02945,884.742188 1107.43235,879 1100.52945,879 L1100.52945,879 Z" id="Shape" sketch:type="MSShapeGroup"></path>
        </g>
    </g>
</svg>